<svg width="180" height="50" viewBox="0 0 180 50" fill="none" xmlns="http://www.w3.org/2000/svg">
<mask id="mask0" mask-type="alpha" maskUnits="userSpaceOnUse" x="49" y="1" width="131" height="49">
<path fill-rule="evenodd" clip-rule="evenodd" d="M49.8039 1H179.894V49.164H49.8039V1Z" fill="white"/>
</mask>
<g mask="url(#mask0)">
<path fill-rule="evenodd" clip-rule="evenodd" d="M155.087 14.347H161.47L167.95 30.451H168.047L173.85 14.347H179.895L168.917 42.539C168.498 43.636 168.039 44.595 167.539 45.417C167.039 46.24 166.451 46.932 165.774 47.496C165.097 48.061 164.299 48.48 163.38 48.753C162.461 49.028 161.358 49.164 160.067 49.164C158.553 49.164 157.069 48.971 155.618 48.584L156.344 43.362C156.795 43.523 157.271 43.66 157.771 43.773C158.271 43.886 158.778 43.942 159.294 43.942C160.003 43.942 160.6 43.877 161.083 43.748C161.566 43.619 161.978 43.418 162.316 43.144C162.654 42.87 162.937 42.516 163.162 42.08C163.389 41.645 163.63 41.121 163.888 40.509L165 37.752L155.087 14.347ZM132.683 25.952C132.683 26.856 132.836 27.726 133.143 28.564C133.448 29.403 133.9 30.144 134.496 30.788C135.093 31.434 135.811 31.95 136.649 32.336C137.486 32.723 138.438 32.916 139.502 32.916C140.566 32.916 141.517 32.723 142.355 32.336C143.193 31.95 143.91 31.434 144.507 30.788C145.104 30.144 145.555 29.403 145.86 28.564C146.167 27.726 146.32 26.856 146.32 25.952C146.32 25.05 146.167 24.18 145.86 23.342C145.555 22.503 145.104 21.762 144.507 21.117C143.91 20.472 143.193 19.956 142.355 19.57C141.517 19.182 140.566 18.989 139.502 18.989C138.438 18.989 137.486 19.182 136.649 19.57C135.811 19.956 135.093 20.472 134.496 21.117C133.9 21.762 133.448 22.503 133.143 23.342C132.836 24.18 132.683 25.05 132.683 25.952ZM146.417 34.077H146.32C145.482 35.495 144.354 36.527 142.935 37.172C141.517 37.817 139.985 38.139 138.341 38.139C136.535 38.139 134.932 37.825 133.529 37.197C132.127 36.568 130.926 35.705 129.927 34.609C128.927 33.513 128.17 32.223 127.653 30.741C127.138 29.257 126.88 27.661 126.88 25.952C126.88 24.244 127.154 22.648 127.702 21.165C128.25 19.682 129.016 18.393 129.999 17.297C130.983 16.201 132.167 15.338 133.554 14.71C134.94 14.081 136.455 13.766 138.1 13.766C139.195 13.766 140.162 13.879 141.001 14.105C141.839 14.331 142.58 14.621 143.226 14.975C143.87 15.33 144.418 15.709 144.869 16.112C145.32 16.515 145.691 16.91 145.982 17.297H146.127V1H151.93V37.559H146.417V34.077ZM100.56 14.347H106.072V18.071H106.169C106.717 16.91 107.555 15.902 108.684 15.048C109.812 14.194 111.343 13.766 113.277 13.766C114.825 13.766 116.139 14.024 117.219 14.54C118.299 15.056 119.178 15.733 119.855 16.571C120.531 17.41 121.015 18.377 121.305 19.473C121.595 20.569 121.74 21.713 121.74 22.906V37.559H115.938V25.808C115.938 25.163 115.905 24.446 115.841 23.656C115.776 22.866 115.607 22.124 115.333 21.431C115.059 20.738 114.632 20.158 114.052 19.69C113.471 19.223 112.682 18.989 111.682 18.989C110.715 18.989 109.9 19.15 109.239 19.473C108.579 19.795 108.03 20.23 107.596 20.779C107.16 21.326 106.846 21.955 106.652 22.664C106.459 23.374 106.362 24.115 106.362 24.889V37.559H100.56V14.347ZM89.6169 23.632C89.5849 21.923 89.0519 20.577 88.0209 19.594C86.9889 18.611 85.5549 18.119 83.7169 18.119C81.9759 18.119 80.5979 18.618 79.5819 19.618C78.5669 20.618 77.9459 21.955 77.7209 23.632H89.6169ZM77.7209 27.984C77.9139 29.725 78.5909 31.078 79.7519 32.046C80.9119 33.013 82.3149 33.496 83.9589 33.496C85.4099 33.496 86.6269 33.199 87.6099 32.602C88.5929 32.005 89.4559 31.256 90.1969 30.354L94.3559 33.496C93.0019 35.173 91.4859 36.366 89.8099 37.076C88.1339 37.784 86.3769 38.139 84.5389 38.139C82.7979 38.139 81.1539 37.849 79.6069 37.269C78.0589 36.689 76.7209 35.867 75.5929 34.802C74.4639 33.739 73.5699 32.457 72.9089 30.958C72.2479 29.458 71.9179 27.79 71.9179 25.952C71.9179 24.115 72.2479 22.447 72.9089 20.948C73.5699 19.449 74.4639 18.167 75.5929 17.103C76.7209 16.039 78.0589 15.217 79.6069 14.637C81.1539 14.056 82.7979 13.766 84.5389 13.766C86.1509 13.766 87.6259 14.049 88.9639 14.613C90.3019 15.177 91.4459 15.991 92.3979 17.055C93.3489 18.119 94.0899 19.432 94.6219 20.996C95.1529 22.56 95.4199 24.357 95.4199 26.388V27.984H77.7209ZM64.2629 20.779C63.1349 19.199 61.6199 18.409 59.7169 18.409C58.9439 18.409 58.1859 18.602 57.4439 18.989C56.7029 19.376 56.3329 20.005 56.3329 20.875C56.3329 21.584 56.6389 22.1 57.2509 22.423C57.8639 22.745 58.6369 23.019 59.5719 23.245C60.5069 23.471 61.5149 23.704 62.5949 23.946C63.6749 24.188 64.6819 24.558 65.6169 25.058C66.5519 25.558 67.3259 26.243 67.9389 27.114C68.5509 27.984 68.8569 29.177 68.8569 30.692C68.8569 32.078 68.5589 33.246 67.9619 34.198C67.3659 35.149 66.5919 35.914 65.6409 36.494C64.6909 37.076 63.6179 37.494 62.4249 37.752C61.2329 38.01 60.0399 38.139 58.8469 38.139C57.0419 38.139 55.3809 37.881 53.8659 37.366C52.3509 36.85 50.9969 35.914 49.8039 34.561L53.6729 30.934C54.4139 31.772 55.2119 32.457 56.0659 32.989C56.9209 33.521 57.9609 33.786 59.1859 33.786C59.6049 33.786 60.0399 33.739 60.4909 33.642C60.9419 33.545 61.3619 33.384 61.7489 33.159C62.1349 32.933 62.4499 32.651 62.6909 32.312C62.9329 31.973 63.0539 31.578 63.0539 31.127C63.0539 30.322 62.7479 29.725 62.1349 29.338C61.5229 28.951 60.7489 28.637 59.8139 28.395C58.8789 28.153 57.8719 27.927 56.7919 27.718C55.7119 27.508 54.7039 27.17 53.7699 26.702C52.8349 26.235 52.0609 25.582 51.4479 24.744C50.8359 23.906 50.5289 22.745 50.5289 21.262C50.5289 19.972 50.7949 18.852 51.3269 17.901C51.8589 16.95 52.5609 16.168 53.4309 15.556C54.3009 14.943 55.3009 14.492 56.4289 14.202C57.5579 13.911 58.7019 13.766 59.8619 13.766C61.4099 13.766 62.9409 14.033 64.4569 14.564C65.9719 15.097 67.1969 16.007 68.1319 17.297L64.2629 20.779Z" fill="#030039"/>
</g>
<mask id="mask1" mask-type="alpha" maskUnits="userSpaceOnUse" x="0" y="3" width="43" height="44">
<path fill-rule="evenodd" clip-rule="evenodd" d="M0 3.5873H42.9898V46.5773H0V3.5873Z" fill="white"/>
</mask>
<g mask="url(#mask1)">
<path fill-rule="evenodd" clip-rule="evenodd" d="M29.0698 30.6273H26.0698V20.5073H15.9398V17.5073H29.0698V30.6273ZM21.9798 37.7173H18.9798V27.5973H8.8598V24.5973H21.9798V37.7173ZM21.4898 3.5873C9.6198 3.5873 -0.000198364 13.2073 -0.000198364 25.0773C-0.000198364 36.9473 9.6198 46.5773 21.4898 46.5773C33.3598 46.5773 42.9898 36.9473 42.9898 25.0773C42.9898 13.2073 33.3598 3.5873 21.4898 3.5873Z" fill="#006FFF"/>
</g>
</svg>
